<svg width="230" height="49" viewBox="0 0 230 49" fill="none" xmlns="http://www.w3.org/2000/svg">
<path d="M19.3434 23.6519C19.3434 19.3078 16.4531 16.2547 12.9027 16.2547C9.35236 16.2547 6.46201 19.3592 6.46201 23.6519C6.46201 27.893 9.35236 31.0492 12.9027 31.0492C16.4567 31.0452 19.3434 27.9959 19.3434 23.6519ZM19.3942 36.5813V33.2192C17.6426 35.5478 15.0351 36.9931 11.9127 36.9931C5.42482 36.9931 0.5 31.3026 0.5 23.6519C0.5 16.0487 5.6134 10.2592 12.0577 10.2592C15.0896 10.2592 17.6463 11.7086 19.3978 13.9816V10.7225H25.222V36.5813H19.3942Z" fill="black"/>
<path d="M53.5123 30.8393C51.4742 30.8393 50.9084 30.0116 50.9084 27.8416V16.3615H54.651V10.7225H50.9084V4.41423H44.9392V10.7225H37.2509V9.15038C37.2509 6.97635 38.009 6.14869 40.0942 6.14869H41.4034V1.13139H38.5312C33.6063 1.13139 31.2853 2.88962 31.2853 8.2673V10.7185H27.9707V16.3576H31.2853V36.5773H37.2547V16.3576H44.9428V29.0295C44.9428 34.3042 46.7888 36.5813 51.6193 36.5813H54.6982V30.8393H53.5123Z" fill="black"/>
<path d="M74.92 21.3234C74.4956 17.9612 71.9825 15.9456 69.0486 15.9456C66.1111 15.9456 63.6959 17.9098 63.083 21.3234H74.92ZM63.0322 25.3586C63.4602 29.1839 65.9697 31.358 69.1429 31.358C71.6525 31.358 73.5964 30.063 74.7313 27.9958H80.842C79.4205 33.4765 74.92 36.993 69.0016 36.993C61.8499 36.993 56.8309 31.5123 56.8309 23.7032C56.8309 15.8941 62.1365 10.2551 69.1465 10.2551C76.2038 10.2551 81.3172 15.9457 81.3172 23.7032C81.3172 24.2736 81.27 24.8398 81.1757 25.3586H63.0322Z" fill="black"/>
<path d="M119.269 23.6519C119.269 19.4621 116.378 16.2547 112.828 16.2547C109.278 16.2547 106.387 19.3592 106.387 23.6519C106.387 27.893 109.278 31.0492 112.828 31.0492C116.378 31.0452 119.269 27.8416 119.269 23.6519ZM100.512 10.7225H106.336V14.0845C108.088 11.7046 110.692 10.2592 113.818 10.2592C120.212 10.2592 125.231 16.0012 125.231 23.6004C125.231 31.2036 120.117 36.997 113.677 36.997C110.692 36.997 108.23 35.7021 106.525 33.5321V47.2219H100.512V10.7225Z" fill="black"/>
<path d="M146.225 23.6519C146.225 19.3078 143.338 16.2547 139.784 16.2547C136.233 16.2547 133.343 19.3592 133.343 23.6519C133.343 27.893 136.233 31.0492 139.784 31.0492C143.338 31.0452 146.225 27.9959 146.225 23.6519ZM146.276 36.5813V33.2192C144.524 35.5478 141.916 36.9931 138.793 36.9931C132.306 36.9931 127.381 31.3026 127.381 23.6519C127.381 16.0487 132.495 10.2592 138.935 10.2592C141.967 10.2592 144.524 11.7086 146.276 13.9816V10.7225H152.1V36.5813H146.276Z" fill="black"/>
<path d="M90.0134 13.2569C90.0134 13.2569 91.4968 10.2592 95.1268 10.2592C96.679 10.2592 97.6836 10.8413 97.6836 10.8413V17.4387C97.6836 17.4387 95.4931 15.9616 93.4804 16.2586C91.4677 16.5556 90.1948 18.5751 90.2021 21.2759V36.5852H84.1893V10.7265H90.0134V13.2569Z" fill="black"/>
<path d="M179.302 10.7225L164.596 47.1385H158.395L164.169 33.0608L154.406 10.7225H161.435L167.146 25.6477L173.007 10.7225H179.302Z" fill="black"/>
<path d="M226.244 10.1364L211.666 0.949215C207.386 -1.74753 202.037 1.62242 202.037 7.01988V7.96237C202.037 8.81377 202.454 9.6018 203.128 10.0255L205.881 11.76C206.69 12.2708 207.698 11.6333 207.698 10.6156V8.27125C207.698 7.09909 208.859 6.3665 209.787 6.95258L222.414 14.9122C223.344 15.4982 223.344 16.9634 222.414 17.5456L209.787 25.5052C208.859 26.0913 207.698 25.3586 207.698 24.1865V22.939C207.698 17.5416 202.349 14.1677 198.067 16.8683L183.488 26.0556C179.208 28.7524 179.208 35.5002 183.488 38.1969L198.067 47.3841C202.345 50.0808 207.698 46.7109 207.698 41.3135V40.371C207.698 39.5195 207.281 38.7354 206.607 38.3078L203.854 36.5693C203.046 36.0585 202.037 36.6961 202.037 37.7139V40.0582C202.037 41.2304 200.877 41.9628 199.948 41.3768L187.321 33.4172C186.393 32.8311 186.393 31.366 187.321 30.7799L199.948 22.8202C200.877 22.2341 202.037 22.9667 202.037 24.1389V25.3864C202.037 30.7838 207.386 34.1578 211.666 31.457L226.244 22.2698C230.524 19.5809 230.524 12.8332 226.244 10.1364Z" fill="black"/>
</svg>
