<svg width="230" height="74" viewBox="0 0 230 74" fill="none" xmlns="http://www.w3.org/2000/svg">
<path d="M0 0.333344H49.6505V24.6189H24.8252L0 0.333344ZM0 24.6189H24.8252L49.6505 48.9045H0V24.6189ZM0 48.9045H24.8252V73.19L0 48.9045Z" fill="black"/>
<path d="M77.6649 19.4923H97.7346V25.7312H85.2612V34.4012H97.7346V40.5023H85.2612V51.6034H77.6649V19.4923ZM101.861 29.4923H109.036V34.1256C109.411 32.5334 110.177 31.3112 111.334 30.4556C112.519 29.5678 113.836 29.1256 115.272 29.1256C116.023 29.1256 116.649 29.1878 117.148 29.3089V35.8234C116.432 35.7389 115.712 35.6934 114.991 35.6856C113.021 35.6856 111.538 36.3112 110.536 37.5656C109.538 38.7889 109.036 40.6234 109.036 43.0712V51.6034H101.864V29.4923H101.861ZM128.474 52.2001C126.286 52.2001 124.378 51.6945 122.753 50.6856C121.158 49.6767 119.891 48.2445 119.096 46.5567C118.252 44.7845 117.827 42.7789 117.827 40.5478C117.827 38.3456 118.268 36.3567 119.142 34.5845C119.962 32.8723 121.264 31.4245 122.894 30.4101C124.549 29.4012 126.441 28.8956 128.568 28.8956C130.162 28.8956 131.586 29.2334 132.835 29.9056C134.085 30.5801 135.023 31.4978 135.649 32.6578V29.4923H142.776V51.6034H135.649V48.4834C135.023 49.5845 134.054 50.4856 132.741 51.1901C131.428 51.8712 129.961 52.2178 128.474 52.2001ZM130.538 46.3734C132.256 46.3734 133.585 45.8234 134.523 44.7223C135.461 43.6212 135.93 42.2289 135.93 40.5478C135.93 38.8967 135.461 37.5201 134.523 36.4189C133.585 35.3178 132.256 34.7678 130.538 34.7678C128.91 34.7678 127.599 35.3023 126.599 36.3734C125.63 37.4445 125.145 38.8345 125.145 40.5478C125.145 42.2612 125.63 43.6667 126.599 44.7678C127.599 45.8389 128.912 46.3734 130.538 46.3734ZM147.794 29.4923H154.969V32.7034C155.471 31.5701 156.282 30.6523 157.406 29.9512C158.565 29.2501 159.908 28.8956 161.439 28.8956C165.004 28.8956 167.365 30.2556 168.52 32.9789C169.156 31.7445 170.151 30.7234 171.381 30.0434C172.696 29.2689 174.207 28.8723 175.741 28.8956C181.088 28.8956 183.76 31.8912 183.76 37.8867V51.6034H176.539V39.1712C176.539 37.6745 176.257 36.5734 175.695 35.8689C175.132 35.1667 174.288 34.8134 173.162 34.8134C171.943 34.8134 171.005 35.2267 170.349 36.0523C169.692 36.8478 169.364 38.2378 169.364 40.2267V51.6034H162.142V39.1256C162.142 37.6278 161.862 36.5412 161.299 35.8689C160.769 35.1667 159.939 34.8134 158.816 34.8134C157.564 34.8134 156.61 35.2267 155.954 36.0523C155.297 36.8478 154.969 38.2378 154.969 40.2267V51.6034H147.796V29.4923H147.794ZM210.713 39.4012C210.713 40.3478 210.649 41.3734 210.522 42.4745H193.831C193.895 43.9123 194.394 45.0112 195.332 45.7778C196.27 46.5412 197.539 46.9245 199.13 46.9245C201.35 46.9245 202.758 46.2656 203.351 44.9512H210.385C210.039 47.1234 208.821 48.8801 206.726 50.2267C204.664 51.5412 202.131 52.2001 199.13 52.2001C195.255 52.2001 192.206 51.1745 189.986 49.1256C187.798 47.0756 186.703 44.2178 186.703 40.5478C186.703 38.1623 187.203 36.0978 188.203 34.3545C189.17 32.6134 190.66 31.2045 192.471 30.3178C194.316 29.3712 196.457 28.8956 198.898 28.8956C201.21 28.8956 203.256 29.3389 205.038 30.2267C206.851 31.1145 208.244 32.3523 209.211 33.9423C210.213 35.5345 210.713 37.3534 210.713 39.4012ZM203.629 38.1167C203.598 36.6489 203.177 35.5312 202.362 34.7678C201.551 34.0045 200.377 33.6212 198.846 33.6212C197.315 33.6212 196.096 34.0334 195.189 34.8601C194.314 35.6556 193.861 36.7401 193.828 38.1167H203.629ZM213.876 29.4923H221.051V34.1256C221.426 32.5334 222.192 31.3112 223.349 30.4556C224.471 29.5912 225.859 29.1223 227.288 29.1256C228.037 29.1256 228.664 29.1878 229.163 29.3089V35.8234C228.447 35.7389 227.727 35.6934 227.006 35.6856C225.036 35.6856 223.553 36.3112 222.551 37.5656C221.549 38.7889 221.051 40.6234 221.051 43.0712V51.6034H213.876V29.4923Z" fill="black"/>
</svg>
