<svg width="24" height="25" viewBox="0 0 24 25" fill="none" xmlns="http://www.w3.org/2000/svg">
<path fill-rule="evenodd" clip-rule="evenodd" d="M6.18182 10.8333C5.20406 10.8333 5 11.0252 5 11.9444V13.6111C5 14.5304 5.20406 14.7222 6.18182 14.7222H8.54545V21.3889C8.54545 22.3081 8.74951 22.5 9.72727 22.5H12.0909C13.0687 22.5 13.2727 22.3081 13.2727 21.3889V14.7222H15.9267C16.6683 14.7222 16.8594 14.5867 17.0631 13.9164L17.5696 12.2497C17.9185 11.1014 17.7035 10.8333 16.4332 10.8333H13.2727V8.05556C13.2727 7.44191 13.8018 6.94444 14.4545 6.94444H17.8182C18.7959 6.94444 19 6.75259 19 5.83333V3.61111C19 2.69185 18.7959 2.5 17.8182 2.5H14.4545C11.191 2.5 8.54545 4.98731 8.54545 8.05556V10.8333H6.18182Z" stroke="white" stroke-width="1.5" stroke-linejoin="round"/>
</svg>
