<svg width="24" height="25" viewBox="0 0 24 25" fill="none" xmlns="http://www.w3.org/2000/svg">
<path d="M2.5 12.5C2.5 8.02166 2.5 5.78249 3.89124 4.39124C5.28249 3 7.52166 3 12 3C16.4783 3 18.7175 3 20.1088 4.39124C21.5 5.78249 21.5 8.02166 21.5 12.5C21.5 16.9783 21.5 19.2175 20.1088 20.6088C18.7175 22 16.4783 22 12 22C7.52166 22 5.28249 22 3.89124 20.6088C2.5 19.2175 2.5 16.9783 2.5 12.5Z" stroke="white" stroke-width="1.5" stroke-linejoin="round"/>
<path d="M16.5 12.5C16.5 14.9853 14.4853 17 12 17C9.51472 17 7.5 14.9853 7.5 12.5C7.5 10.0147 9.51472 8 12 8C14.4853 8 16.5 10.0147 16.5 12.5Z" stroke="white" stroke-width="1.5"/>
<path d="M17.507 7H17.498" stroke="white" stroke-width="2" stroke-linecap="round" stroke-linejoin="round"/>
</svg>
