<svg width="82" height="23" viewBox="0 0 82 23" fill="none" xmlns="http://www.w3.org/2000/svg">
<path d="M0.144 0.863999H3.192L6.288 13.968H6.336L9.792 0.863999H12.864L16.224 13.968H16.272L19.464 0.863999H22.512L17.784 18H14.736L11.304 4.896H11.256L7.752 18H4.656L0.144 0.863999ZM33.6054 15.24C33.6054 15.576 33.6454 15.816 33.7254 15.96C33.8214 16.104 33.9974 16.176 34.2534 16.176C34.3334 16.176 34.4294 16.176 34.5414 16.176C34.6534 16.176 34.7814 16.16 34.9254 16.128V18.024C34.8294 18.056 34.7014 18.088 34.5414 18.12C34.3974 18.168 34.2454 18.208 34.0854 18.24C33.9254 18.272 33.7654 18.296 33.6054 18.312C33.4454 18.328 33.3094 18.336 33.1974 18.336C32.6374 18.336 32.1734 18.224 31.8054 18C31.4374 17.776 31.1974 17.384 31.0854 16.824C30.5414 17.352 29.8694 17.736 29.0694 17.976C28.2854 18.216 27.5254 18.336 26.7894 18.336C26.2294 18.336 25.6934 18.256 25.1814 18.096C24.6694 17.952 24.2134 17.736 23.8134 17.448C23.4294 17.144 23.1174 16.768 22.8774 16.32C22.6534 15.856 22.5414 15.32 22.5414 14.712C22.5414 13.944 22.6774 13.32 22.9494 12.84C23.2374 12.36 23.6054 11.984 24.0534 11.712C24.5174 11.44 25.0294 11.248 25.5894 11.136C26.1654 11.008 26.7414 10.912 27.3174 10.848C27.8134 10.752 28.2854 10.688 28.7334 10.656C29.1814 10.608 29.5734 10.536 29.9094 10.44C30.2614 10.344 30.5334 10.2 30.7254 10.008C30.9334 9.8 31.0374 9.496 31.0374 9.096C31.0374 8.744 30.9494 8.456 30.7734 8.232C30.6134 8.008 30.4054 7.84 30.1494 7.728C29.9094 7.6 29.6374 7.52 29.3334 7.488C29.0294 7.44 28.7414 7.416 28.4694 7.416C27.7014 7.416 27.0694 7.576 26.5734 7.896C26.0774 8.216 25.7974 8.712 25.7334 9.384H22.9974C23.0454 8.584 23.2374 7.92 23.5734 7.392C23.9094 6.864 24.3334 6.44 24.8454 6.12C25.3734 5.8 25.9654 5.576 26.6214 5.448C27.2774 5.32 27.9494 5.256 28.6374 5.256C29.2454 5.256 29.8454 5.32 30.4374 5.448C31.0294 5.576 31.5574 5.784 32.0214 6.072C32.5014 6.36 32.8854 6.736 33.1734 7.2C33.4614 7.648 33.6054 8.2 33.6054 8.856V15.24ZM30.8694 11.784C30.4534 12.056 29.9414 12.224 29.3334 12.288C28.7254 12.336 28.1174 12.416 27.5094 12.528C27.2214 12.576 26.9414 12.648 26.6694 12.744C26.3974 12.824 26.1574 12.944 25.9494 13.104C25.7414 13.248 25.5734 13.448 25.4454 13.704C25.3334 13.944 25.2774 14.24 25.2774 14.592C25.2774 14.896 25.3654 15.152 25.5414 15.36C25.7174 15.568 25.9254 15.736 26.1654 15.864C26.4214 15.976 26.6934 16.056 26.9814 16.104C27.2854 16.152 27.5574 16.176 27.7974 16.176C28.1014 16.176 28.4294 16.136 28.7814 16.056C29.1334 15.976 29.4614 15.84 29.7654 15.648C30.0854 15.456 30.3494 15.216 30.5574 14.928C30.7654 14.624 30.8694 14.256 30.8694 13.824V11.784ZM35.1814 5.592H38.1814L41.4214 14.856H41.4694L44.6134 5.592H47.4694L42.6454 18.672C42.4214 19.232 42.1974 19.768 41.9734 20.28C41.7654 20.792 41.5014 21.24 41.1814 21.624C40.8774 22.024 40.4934 22.336 40.0294 22.56C39.5654 22.8 38.9734 22.92 38.2534 22.92C37.6134 22.92 36.9814 22.872 36.3574 22.776V20.472C36.5814 20.504 36.7974 20.536 37.0054 20.568C37.2134 20.616 37.4294 20.64 37.6534 20.64C37.9734 20.64 38.2374 20.6 38.4454 20.52C38.6534 20.44 38.8214 20.32 38.9494 20.16C39.0934 20.016 39.2134 19.84 39.3094 19.632C39.4054 19.424 39.4934 19.184 39.5734 18.912L39.8854 17.952L35.1814 5.592ZM48.9947 5.592H51.5867V7.32H51.6587C51.8667 7.016 52.0907 6.736 52.3307 6.48C52.5707 6.224 52.8347 6.008 53.1227 5.832C53.4267 5.656 53.7707 5.52 54.1547 5.424C54.5387 5.312 54.9787 5.256 55.4747 5.256C56.2267 5.256 56.9227 5.424 57.5627 5.76C58.2187 6.096 58.6827 6.616 58.9547 7.32C59.4187 6.68 59.9547 6.176 60.5627 5.808C61.1707 5.44 61.9307 5.256 62.8427 5.256C64.1547 5.256 65.1707 5.576 65.8907 6.216C66.6267 6.856 66.9947 7.928 66.9947 9.432V18H64.2587V10.752C64.2587 10.256 64.2427 9.808 64.2107 9.408C64.1787 8.992 64.0827 8.64 63.9227 8.352C63.7787 8.048 63.5547 7.816 63.2507 7.656C62.9467 7.496 62.5307 7.416 62.0027 7.416C61.0747 7.416 60.4027 7.704 59.9867 8.28C59.5707 8.856 59.3627 9.672 59.3627 10.728V18H56.6267V10.032C56.6267 9.168 56.4667 8.52 56.1467 8.088C55.8427 7.64 55.2747 7.416 54.4427 7.416C54.0907 7.416 53.7467 7.488 53.4107 7.632C53.0907 7.776 52.8027 7.984 52.5467 8.256C52.3067 8.528 52.1067 8.864 51.9467 9.264C51.8027 9.664 51.7307 10.12 51.7307 10.632V18H48.9947V5.592ZM75.5655 18.336C74.5735 18.336 73.6855 18.176 72.9015 17.856C72.1335 17.52 71.4775 17.064 70.9335 16.488C70.4055 15.912 69.9975 15.224 69.7095 14.424C69.4375 13.624 69.3015 12.744 69.3015 11.784C69.3015 10.84 69.4375 9.968 69.7095 9.168C69.9975 8.368 70.4055 7.68 70.9335 7.104C71.4775 6.528 72.1335 6.08 72.9015 5.76C73.6855 5.424 74.5735 5.256 75.5655 5.256C76.5575 5.256 77.4375 5.424 78.2055 5.76C78.9895 6.08 79.6455 6.528 80.1735 7.104C80.7175 7.68 81.1255 8.368 81.3975 9.168C81.6855 9.968 81.8295 10.84 81.8295 11.784C81.8295 12.744 81.6855 13.624 81.3975 14.424C81.1255 15.224 80.7175 15.912 80.1735 16.488C79.6455 17.064 78.9895 17.52 78.2055 17.856C77.4375 18.176 76.5575 18.336 75.5655 18.336ZM75.5655 16.176C76.1735 16.176 76.7015 16.048 77.1495 15.792C77.5975 15.536 77.9655 15.2 78.2535 14.784C78.5415 14.368 78.7495 13.904 78.8775 13.392C79.0215 12.864 79.0935 12.328 79.0935 11.784C79.0935 11.256 79.0215 10.728 78.8775 10.2C78.7495 9.672 78.5415 9.208 78.2535 8.808C77.9655 8.392 77.5975 8.056 77.1495 7.8C76.7015 7.544 76.1735 7.416 75.5655 7.416C74.9575 7.416 74.4295 7.544 73.9815 7.8C73.5335 8.056 73.1655 8.392 72.8775 8.808C72.5895 9.208 72.3735 9.672 72.2295 10.2C72.1015 10.728 72.0375 11.256 72.0375 11.784C72.0375 12.328 72.1015 12.864 72.2295 13.392C72.3735 13.904 72.5895 14.368 72.8775 14.784C73.1655 15.2 73.5335 15.536 73.9815 15.792C74.4295 16.048 74.9575 16.176 75.5655 16.176Z" fill="black"/>
</svg>
